<?xml version="1.0" encoding="UTF-8"?>
<svg id="Layer_2" data-name="Layer 2" xmlns="http://www.w3.org/2000/svg" viewBox="0 0 777.49 122.69">
  <g id="Layer_1-2" data-name="Layer 1">
    <g>
      <path d="M28.97,81.93c4.99,0,8.57-.9,10.74-2.7,2.17-1.8,3.26-3.95,3.26-6.45,0-2.31-.86-4.18-2.56-5.62-1.71-1.43-4.23-2.66-7.56-3.67l-7.35-2.36c-4.99-1.66-9.41-3.51-13.24-5.55-3.84-2.03-6.79-4.67-8.87-7.9-2.08-3.23-3.12-7.35-3.12-12.34,0-7.67,2.91-13.77,8.73-18.3,5.82-4.53,13.91-6.79,24.26-6.79,5.27,0,9.96.51,14.07,1.53,4.11,1.02,7.35,2.52,9.7,4.5,2.36,1.99,3.54,4.41,3.54,7.28,0,2.13-.49,3.95-1.46,5.48-.97,1.53-2.2,2.84-3.67,3.95-2.13-1.48-4.94-2.75-8.46-3.81-3.51-1.06-7.4-1.59-11.65-1.59s-7.76.72-9.98,2.15c-2.22,1.43-3.33,3.3-3.33,5.61,0,1.85.74,3.35,2.22,4.5,1.48,1.16,3.69,2.2,6.65,3.12l7.62,2.36c8.41,2.59,14.88,6.03,19.41,10.33,4.53,4.3,6.79,10.05,6.79,17.26,0,7.76-3.01,14.07-9.01,18.92-6.01,4.85-14.7,7.28-26.06,7.28-5.64,0-10.68-.6-15.11-1.8-4.44-1.2-7.97-2.96-10.6-5.27-2.63-2.31-3.95-4.99-3.95-8.04,0-2.4.72-4.46,2.15-6.17,1.43-1.71,3.02-2.98,4.78-3.81,2.49,2.03,5.61,3.86,9.36,5.48,3.74,1.62,7.97,2.43,12.68,2.43Z" fill="#fff"/>
      <path d="M98.29,70.84h-20.52V6.52c.83-.28,2.08-.55,3.74-.83,1.66-.28,3.47-.42,5.41-.42,3.97,0,6.86.69,8.66,2.08s2.7,3.93,2.7,7.63v55.87ZM77.77,60.17h20.52v36.46c-.92.28-2.22.53-3.88.76-1.66.23-3.47.35-5.41.35-3.88,0-6.72-.69-8.53-2.08-1.8-1.39-2.7-3.88-2.7-7.49v-28ZM141.4,68.48h-20.66v-12.34c0-4.25-1.09-7.28-3.26-9.08-2.17-1.8-4.92-2.7-8.25-2.7-2.96,0-5.62.55-7.97,1.66-2.36,1.11-4.37,2.36-6.03,3.74l-.55-16.63c2.12-1.2,4.76-2.33,7.9-3.4,3.14-1.06,6.61-1.59,10.4-1.59,8.78,0,15.71,2.24,20.8,6.72,5.08,4.48,7.62,11.21,7.62,20.17v13.45ZM120.75,60.17h20.66v36.46c-.92.28-2.22.53-3.88.76-1.66.23-3.47.35-5.41.35-3.97,0-6.86-.69-8.66-2.08-1.8-1.39-2.7-3.88-2.7-7.49v-28Z" fill="#fff"/>
      <path d="M269,97.53c-2.77-.88-5.18-1.87-7.21-2.98v-17.33c1.57,1.29,3.49,2.49,5.75,3.6,2.26,1.11,4.83,1.66,7.69,1.66,5.08,0,9.03-1.62,11.85-4.85,2.82-3.23,4.23-8.09,4.23-14.56,0-4.44-.63-8.02-1.87-10.74-1.25-2.73-3.03-4.74-5.34-6.03-2.31-1.29-5.04-1.94-8.18-1.94-2.13,0-4.04.26-5.75.76-1.71.51-3.17,1.13-4.37,1.87v42.42h-20.38v-45.33c0-2.31.46-4.23,1.39-5.75.92-1.53,2.36-2.89,4.3-4.09,2.77-1.75,6.28-3.21,10.54-4.37,4.25-1.15,9.01-1.73,14.28-1.73,7.12,0,13.42,1.23,18.92,3.67,5.5,2.45,9.77,6.24,12.82,11.37,3.05,5.13,4.57,11.76,4.57,19.89s-1.48,14.42-4.44,19.69c-2.96,5.27-6.98,9.27-12.06,11.99-5.08,2.73-10.86,4.09-17.33,4.09-3.51,0-6.65-.44-9.43-1.32ZM265.95,121.44c-.92.28-2.22.55-3.88.83-1.66.28-3.47.42-5.41.42-3.88,0-6.72-.69-8.53-2.08-1.8-1.39-2.7-3.93-2.7-7.63v-28.83h20.52v37.29Z" fill="#fff"/>
      <path d="M345.8,63.63h-20.38V13.86c.92-.28,2.22-.58,3.88-.9,1.66-.32,3.42-.49,5.27-.49,3.97,0,6.84.69,8.59,2.08,1.75,1.38,2.63,3.93,2.63,7.62v41.45ZM325.42,60.17h20.38v14.83c0,2.59.83,4.48,2.5,5.68,1.66,1.2,4.02,1.8,7.07,1.8,1.39,0,2.89-.16,4.51-.48,1.62-.32,2.98-.72,4.09-1.18.74.83,1.41,1.85,2.01,3.05.6,1.2.9,2.59.9,4.16,0,3.14-1.29,5.73-3.88,7.76-2.59,2.03-6.93,3.05-13.03,3.05-7.76,0-13.79-1.76-18.09-5.27-4.3-3.51-6.45-9.24-6.45-17.19v-16.22ZM338.45,47.55v-15.8h26.62c.46.74.92,1.8,1.39,3.19.46,1.39.69,2.91.69,4.57,0,2.77-.62,4.81-1.87,6.1-1.25,1.3-2.93,1.94-5.06,1.94h-21.77Z" fill="#fff"/>
      <path d="M378.79,11.09c0-3.14,1.09-5.77,3.26-7.9,2.17-2.12,4.92-3.19,8.25-3.19s6.19,1.06,8.32,3.19c2.13,2.13,3.19,4.76,3.19,7.9s-1.06,5.68-3.19,7.9-4.9,3.33-8.32,3.33-6.08-1.11-8.25-3.33c-2.17-2.22-3.26-4.85-3.26-7.9ZM400.56,70.84h-20.52V31.05c.83-.28,2.1-.55,3.81-.83,1.71-.28,3.54-.42,5.48-.42,3.97,0,6.84.67,8.59,2.01,1.75,1.34,2.63,3.91,2.63,7.69v31.33ZM380.04,60.17h20.52v36.46c-.83.28-2.08.53-3.74.76-1.66.23-3.47.35-5.41.35-3.97,0-6.86-.69-8.66-2.08-1.8-1.39-2.7-3.88-2.7-7.49v-28Z" fill="#fff"/>
      <path d="M477.64,50.88v15.8h-20.66v-13.17c0-3.14-.92-5.45-2.77-6.93-1.85-1.48-4.16-2.22-6.93-2.22-2.03,0-3.86.3-5.48.9-1.62.6-2.98,1.23-4.09,1.87v19.55h-20.52v-21.63c0-2.31.49-4.23,1.46-5.75.97-1.53,2.38-2.89,4.23-4.09,3.05-2.12,6.79-3.83,11.23-5.13,4.44-1.29,9.06-1.94,13.86-1.94,4.44,0,8.59.69,12.48,2.08,3.88,1.39,7.25,3.51,10.12,6.38.74.55,1.46,1.13,2.15,1.73.69.6,1.22,1.27,1.59,2.01.92,1.48,1.71,3.14,2.36,4.99.65,1.85.97,3.7.97,5.55ZM417.19,60.3h20.52v36.32c-.92.28-2.22.53-3.88.76-1.66.23-3.47.35-5.41.35-3.88,0-6.72-.69-8.53-2.08-1.8-1.39-2.7-3.88-2.7-7.49v-27.87ZM456.98,60.3h20.66v36.32c-.92.28-2.22.53-3.88.76-1.66.23-3.47.35-5.41.35-3.97,0-6.86-.69-8.66-2.08-1.8-1.39-2.7-3.88-2.7-7.49v-27.87ZM517.42,52.96v13.72h-20.52v-13.17c0-3.14-.88-5.45-2.63-6.93-1.76-1.48-4.07-2.22-6.93-2.22-2.13,0-4.14.44-6.03,1.32-1.9.88-3.54,1.92-4.92,3.12l-10.81-11.92c3.05-2.4,6.52-4.46,10.4-6.17,3.88-1.71,8.64-2.56,14.28-2.56,4.8,0,9.29.83,13.45,2.49,4.16,1.66,7.49,4.3,9.98,7.9,2.5,3.6,3.74,8.41,3.74,14.42ZM496.91,60.3h20.52v36.32c-.83.28-2.08.53-3.74.76-1.66.23-3.47.35-5.41.35-3.97,0-6.86-.69-8.66-2.08s-2.7-3.88-2.7-7.49v-27.87Z" fill="#fff"/>
      <path d="M532.95,11.09c0-3.14,1.09-5.77,3.26-7.9,2.17-2.12,4.92-3.19,8.25-3.19s6.19,1.06,8.32,3.19c2.13,2.13,3.19,4.76,3.19,7.9s-1.06,5.68-3.19,7.9c-2.13,2.22-4.9,3.33-8.32,3.33s-6.08-1.11-8.25-3.33c-2.17-2.22-3.26-4.85-3.26-7.9ZM554.71,70.84h-20.52V31.05c.83-.28,2.1-.55,3.81-.83,1.71-.28,3.54-.42,5.48-.42,3.97,0,6.84.67,8.59,2.01,1.75,1.34,2.63,3.91,2.63,7.69v31.33ZM534.2,60.17h20.52v36.46c-.83.28-2.08.53-3.74.76-1.66.23-3.47.35-5.41.35-3.97,0-6.86-.69-8.66-2.08s-2.7-3.88-2.7-7.49v-28Z" fill="#fff"/>
      <path d="M625.28,77.36c0,6.75-2.54,12.04-7.62,15.87-5.08,3.84-12.48,5.75-22.18,5.75-7.58,0-13.82-1.11-18.72-3.33-4.9-2.22-7.35-5.5-7.35-9.84,0-1.94.42-3.63,1.25-5.06.83-1.43,1.89-2.56,3.19-3.4,2.59,1.48,5.61,2.84,9.08,4.09,3.47,1.25,7.42,1.87,11.85,1.87,6.75,0,10.12-1.94,10.12-5.82,0-1.66-.6-2.98-1.8-3.95-1.2-.97-3.19-1.68-5.96-2.15l-5.82-1.39c-7.4-1.57-12.92-4-16.57-7.28-3.65-3.28-5.48-7.78-5.48-13.52,0-6.47,2.61-11.62,7.83-15.46,5.22-3.83,12.27-5.75,21.14-5.75,4.44,0,8.48.44,12.13,1.32,3.65.88,6.54,2.22,8.67,4.02,2.12,1.8,3.19,4.04,3.19,6.72,0,1.85-.37,3.47-1.11,4.85-.74,1.39-1.71,2.54-2.91,3.47-1.02-.65-2.56-1.34-4.64-2.08-2.08-.74-4.35-1.34-6.79-1.8-2.45-.46-4.74-.69-6.86-.69-3.33,0-5.92.44-7.76,1.32-1.85.88-2.77,2.24-2.77,4.09,0,1.2.53,2.24,1.59,3.12,1.06.88,2.93,1.59,5.61,2.15l5.55,1.39c8.23,1.85,14.14,4.5,17.74,7.97,3.6,3.47,5.41,7.97,5.41,13.52Z" fill="#fff"/>
      <path d="M648.28,73.2l-.83-13.86,34.38-5.41c-.19-2.59-1.3-4.99-3.33-7.21-2.03-2.22-5.04-3.33-9.01-3.33s-7.62,1.41-10.4,4.23c-2.77,2.82-4.25,6.82-4.44,11.99l.69,9.57c.83,5.08,3,8.71,6.52,10.88,3.51,2.17,7.67,3.26,12.48,3.26,3.88,0,7.53-.55,10.95-1.66,3.42-1.11,6.19-2.26,8.32-3.47,1.39.83,2.52,1.99,3.4,3.47.88,1.48,1.32,3.05,1.32,4.71,0,2.77-1.09,5.08-3.26,6.93-2.17,1.85-5.18,3.24-9.01,4.16-3.84.92-8.2,1.39-13.1,1.39-7.12,0-13.52-1.34-19.2-4.02-5.68-2.68-10.14-6.7-13.38-12.06-3.24-5.36-4.85-12.06-4.85-20.1,0-5.91.95-11.04,2.84-15.39,1.89-4.34,4.44-7.92,7.62-10.74,3.19-2.82,6.79-4.92,10.81-6.31,4.02-1.39,8.2-2.08,12.55-2.08,6.38,0,11.94,1.27,16.71,3.81,4.76,2.54,8.48,5.98,11.16,10.33,2.68,4.34,4.02,9.38,4.02,15.11,0,2.87-.79,5.04-2.36,6.52-1.57,1.48-3.74,2.4-6.51,2.77l-44.09,6.52Z" fill="#fff"/>
      <path d="M756.97,80.27v-41.73h20.52v44.36c0,2.22-.46,4.09-1.39,5.62-.92,1.52-2.4,2.89-4.44,4.09-2.49,1.66-5.75,3.12-9.77,4.37-4.02,1.25-8.66,1.87-13.93,1.87-7.67,0-14.3-1.29-19.89-3.88-5.59-2.59-9.89-6.49-12.89-11.71-3.01-5.22-4.51-11.71-4.51-19.48s1.55-14.81,4.65-20.03c3.1-5.22,7.28-9.13,12.55-11.71,5.27-2.59,11.09-3.88,17.47-3.88,3.33,0,6.28.37,8.87,1.11,2.59.74,4.71,1.62,6.38,2.63v16.91c-1.3-1.11-3.01-2.12-5.13-3.05-2.13-.92-4.57-1.39-7.35-1.39-3.24,0-6.1.69-8.59,2.08-2.49,1.38-4.44,3.51-5.82,6.38-1.39,2.87-2.08,6.52-2.08,10.95,0,6.47,1.46,11.23,4.37,14.28,2.91,3.05,6.86,4.57,11.85,4.57,2.03,0,3.83-.25,5.41-.76,1.57-.51,2.82-1.04,3.74-1.59ZM777.49,42.56l-20.52.14V6.52c.83-.28,2.08-.55,3.74-.83,1.66-.28,3.47-.42,5.41-.42,4.07,0,6.98.69,8.73,2.08,1.75,1.39,2.64,3.93,2.64,7.63v27.59Z" fill="#fff"/>
      <g>
        <path d="M230.87,73.39l-7.15-30.42c-1.65-7.02-8.68-11.38-15.71-9.73l-39.86,9.37-.92-4.2c-.09-.39-.25-.73-.45-1.06-.61-1.51-2.05-2.45-3.48-2.17l-10,2c-1.62.32-2.61,2.11-2.2,4l.38,1.73c.41,1.88,2.06,3.15,3.68,2.82l3.96-.79,10.09,42.92c1.65,7.02,8.68,11.38,15.71,9.73l36.21-8.51c7.02-1.65,11.38-8.68,9.73-15.71ZM183.21,91.15l-.19.05c-3.32.78-6.64-1.28-7.42-4.6l-1.23-5.24c-.78-3.32,1.28-6.64,4.6-7.42l.19-.05c3.32-.78,6.64,1.28,7.42,4.6l1.23,5.24c.78,3.32-1.28,6.64-4.6,7.42ZM201.8,86.21l-1.97.46c-2.83.66-5.66-1.09-6.32-3.91l-4.66-19.85c-.66-2.83,1.09-5.66,3.92-6.32l1.97-.46c2.83-.66,5.66,1.09,6.32,3.92l4.66,19.85c.66,2.83-1.09,5.66-3.92,6.32ZM220.1,82.55l-1.79.42c-2.88.68-5.76-1.11-6.43-3.98l-7.6-32.34c-.68-2.88,1.11-5.76,3.98-6.43l1.79-.42c2.88-.68,5.76,1.11,6.43,3.98l7.6,32.34c.68,2.88-1.11,5.76-3.98,6.43Z" fill="#fff"/>
        <circle cx="190.58" cy="106.44" r="6.49" fill="#fff"/>
        <circle cx="219.36" cy="99.7" r="6.49" fill="#fff"/>
      </g>
    </g>
  </g>
</svg>