<?xml version="1.0" encoding="UTF-8"?>
<svg id="Layer_2" data-name="Layer 2" xmlns="http://www.w3.org/2000/svg" viewBox="0 0 583.42 666.19">
  <g id="Layer_1-2" data-name="Layer 1">
    <g>
      <path d="M100.33,27.96h365.61c52.46,0,95.04,42.59,95.04,95.04v227.31c0,52.46-42.59,95.04-95.04,95.04H195.37c-52.46,0-95.04-42.59-95.04-95.04V27.96h0Z" transform="translate(-45.37 81.92) rotate(-13.22)" fill="#081836"/>
      <rect x="173.11" y="296.76" width="91.22" height="128.94" rx="44.89" ry="44.89" transform="translate(-76.84 59.62) rotate(-13.22)" fill="#fff"/>
      <rect x="290.86" y="167.74" width="91.22" height="224.78" rx="38.24" ry="38.24" transform="translate(-55.16 84.4) rotate(-13.22)" fill="#fff"/>
      <rect x="413.82" y="47.54" width="91.22" height="319.48" rx="38.92" ry="38.92" transform="translate(-35.24 110.6) rotate(-13.22)" fill="#fff"/>
      <circle cx="287.77" cy="535" r="47.22" fill="#081836"/>
      <circle cx="497.13" cy="486.01" r="47.22" fill="#081836"/>
      <ellipse cx="322.42" cy="639.96" rx="158.48" ry="26.23" fill="#010101" opacity=".1"/>
      <path d="M124.74,193.33l-13.11,2.64c-14.24,2.86-28.23-5.92-31.25-19.63l-27.11-123.18c-3.02-13.71,6.09-27.14,20.33-30l13.11-2.64c14.24-2.86,28.23,5.92,31.25,19.63l27.11,123.18c3.02,13.71-6.09,27.14-20.33,30Z" fill="#081836"/>
      <path d="M116.2,37.25l2.75,12.62c2.99,13.71-4.17,26.73-15.98,29.09l-72.75,14.54c-11.81,2.36-23.81-6.84-26.8-20.54l-2.75-12.62c-2.99-13.71,4.17-26.73,15.98-29.09l72.75-14.54c11.81-2.36,23.81,6.84,26.8,20.54Z" fill="#081836"/>
      <path d="M233.75,400.45l-10.57,2.23c-11.48,2.42-22.83-4.57-25.34-15.61l-3.63-15.93c-2.52-11.04,4.75-21.95,16.24-24.37l10.57-2.23c11.48-2.42,22.83,4.57,25.34,15.61l3.63,15.93c2.52,11.04-4.75,21.95-16.24,24.37Z" fill="#26b688" opacity=".5"/>
      <path d="M361.85,369.28l-10.57,2.23c-11.48,2.42-22.83-4.57-25.34-15.61l-17.2-75.49c-2.52-11.04,4.75-21.95,16.24-24.37l10.57-2.23c11.48-2.42,22.83,4.57,25.34,15.61l17.2,75.49c2.52,11.04-4.75,21.95-16.24,24.37Z" fill="#26b688" opacity=".75"/>
      <path d="M496.34,341.4l-10.57,2.23c-11.48,2.42-22.83-4.57-25.34-15.61l-37.79-165.91c-2.52-11.04,4.75-21.95,16.24-24.37l10.57-2.23c11.48-2.42,22.83,4.57,25.34,15.61l37.79,165.91c2.52,11.04-4.75,21.95-16.24,24.37Z" fill="#26b688"/>
    </g>
  </g>
</svg>