<?xml version="1.0" encoding="UTF-8"?>
<svg id="Layer_2" data-name="Layer 2" xmlns="http://www.w3.org/2000/svg" viewBox="0 0 775.67 122.4">
  <g id="Layer_1-2" data-name="Layer 1">
    <g>
      <path d="M98.06,70.68h-20.47V6.5c.83-.28,2.07-.55,3.73-.83,1.66-.28,3.46-.41,5.39-.41,3.96,0,6.85.69,8.64,2.07s2.7,3.92,2.7,7.61v55.74ZM77.59,60.03h20.47v36.37c-.92.28-2.21.53-3.87.76-1.66.23-3.46.35-5.39.35-3.87,0-6.71-.69-8.51-2.08s-2.7-3.87-2.7-7.47v-27.94ZM141.07,68.32h-20.61v-12.31c0-4.24-1.08-7.26-3.25-9.06-2.17-1.8-4.91-2.7-8.23-2.7-2.95,0-5.6.55-7.95,1.66-2.35,1.11-4.36,2.35-6.02,3.73l-.55-16.6c2.12-1.2,4.75-2.33,7.88-3.39,3.13-1.06,6.59-1.59,10.37-1.59,8.76,0,15.67,2.24,20.75,6.71,5.07,4.47,7.61,11.18,7.61,20.12v13.42ZM120.46,60.03h20.61v36.37c-.92.28-2.21.53-3.87.76-1.66.23-3.46.35-5.4.35-3.96,0-6.85-.69-8.64-2.08-1.8-1.38-2.7-3.87-2.7-7.47v-27.94Z" fill="#081836"/>
      <path d="M268.37,97.3c-2.77-.88-5.17-1.87-7.19-2.97v-17.29c1.57,1.29,3.48,2.49,5.74,3.6,2.26,1.11,4.82,1.66,7.68,1.66,5.07,0,9.01-1.61,11.82-4.84,2.81-3.23,4.22-8.07,4.22-14.52,0-4.43-.62-8-1.87-10.72-1.24-2.72-3.02-4.72-5.33-6.02-2.31-1.29-5.03-1.94-8.16-1.94-2.12,0-4.03.25-5.74.76-1.71.51-3.16,1.13-4.36,1.87v42.32h-20.33v-45.23c0-2.3.46-4.22,1.38-5.74.92-1.52,2.35-2.88,4.29-4.08,2.77-1.75,6.27-3.2,10.51-4.36,4.24-1.15,8.99-1.73,14.24-1.73,7.1,0,13.39,1.22,18.88,3.66,5.49,2.44,9.75,6.22,12.79,11.34,3.04,5.12,4.56,11.73,4.56,19.85s-1.48,14.38-4.43,19.64c-2.95,5.25-6.96,9.24-12.03,11.96-5.07,2.72-10.84,4.08-17.29,4.08-3.51,0-6.64-.44-9.4-1.31ZM265.33,121.16c-.92.28-2.21.55-3.87.83-1.66.28-3.46.41-5.39.41-3.87,0-6.71-.69-8.51-2.07-1.8-1.38-2.7-3.92-2.7-7.61v-28.77h20.47v37.2Z" fill="#081836"/>
      <path d="M344.99,63.48h-20.33V13.83c.92-.28,2.21-.57,3.87-.9,1.66-.32,3.41-.48,5.25-.48,3.96,0,6.82.69,8.57,2.08,1.75,1.38,2.63,3.92,2.63,7.61v41.35ZM324.66,60.03h20.33v14.8c0,2.58.83,4.47,2.49,5.67,1.66,1.2,4.01,1.8,7.05,1.8,1.38,0,2.88-.16,4.5-.48,1.61-.32,2.97-.71,4.08-1.18.74.83,1.41,1.85,2.01,3.04.6,1.2.9,2.58.9,4.15,0,3.14-1.29,5.72-3.87,7.75-2.58,2.03-6.92,3.04-13,3.04-7.75,0-13.76-1.75-18.05-5.25-4.29-3.5-6.43-9.22-6.43-17.15v-16.18ZM337.66,47.44v-15.77h26.56c.46.74.92,1.8,1.38,3.18.46,1.38.69,2.9.69,4.56,0,2.77-.62,4.79-1.87,6.08-1.24,1.29-2.93,1.94-5.05,1.94h-21.72Z" fill="#081836"/>
      <path d="M377.91,11.07c0-3.13,1.08-5.76,3.25-7.88,2.17-2.12,4.91-3.18,8.23-3.18s6.18,1.06,8.3,3.18c2.12,2.12,3.18,4.75,3.18,7.88s-1.06,5.67-3.18,7.88-4.89,3.32-8.3,3.32-6.06-1.11-8.23-3.32c-2.17-2.21-3.25-4.84-3.25-7.88ZM399.62,70.68h-20.47V30.98c.83-.28,2.1-.55,3.8-.83,1.7-.28,3.53-.41,5.46-.41,3.96,0,6.82.67,8.57,2.01,1.75,1.34,2.63,3.9,2.63,7.68v31.26ZM379.15,60.03h20.47v36.37c-.83.28-2.07.53-3.73.76-1.66.23-3.46.35-5.39.35-3.96,0-6.85-.69-8.64-2.08s-2.7-3.87-2.7-7.47v-27.94Z" fill="#081836"/>
      <path d="M476.52,50.76v15.77h-20.61v-13.14c0-3.13-.92-5.44-2.77-6.92-1.85-1.47-4.15-2.21-6.92-2.21-2.03,0-3.85.3-5.46.9-1.61.6-2.97,1.22-4.08,1.87v19.5h-20.47v-21.58c0-2.3.48-4.22,1.45-5.74.97-1.52,2.37-2.88,4.22-4.08,3.04-2.12,6.78-3.82,11.2-5.12,4.43-1.29,9.04-1.94,13.83-1.94,4.43,0,8.57.69,12.45,2.07,3.87,1.38,7.24,3.51,10.1,6.36.74.55,1.45,1.13,2.14,1.73.69.6,1.22,1.27,1.59,2.01.92,1.48,1.7,3.14,2.35,4.98.64,1.85.97,3.69.97,5.53ZM416.22,60.16h20.47v36.24c-.92.28-2.21.53-3.87.76-1.66.23-3.46.35-5.39.35-3.87,0-6.71-.69-8.51-2.08s-2.7-3.87-2.7-7.47v-27.8ZM455.91,60.16h20.61v36.24c-.92.28-2.21.53-3.87.76-1.66.23-3.46.35-5.39.35-3.96,0-6.85-.69-8.64-2.08-1.8-1.38-2.7-3.87-2.7-7.47v-27.8ZM516.21,52.83v13.69h-20.47v-13.14c0-3.13-.88-5.44-2.63-6.92-1.75-1.47-4.06-2.21-6.92-2.21-2.12,0-4.13.44-6.02,1.31-1.89.88-3.53,1.91-4.91,3.11l-10.79-11.89c3.04-2.4,6.5-4.45,10.37-6.15,3.87-1.71,8.62-2.56,14.25-2.56,4.79,0,9.27.83,13.42,2.49,4.15,1.66,7.47,4.29,9.96,7.88,2.49,3.6,3.73,8.39,3.73,14.38ZM495.74,60.16h20.47v36.24c-.83.28-2.07.53-3.73.76-1.66.23-3.46.35-5.39.35-3.96,0-6.85-.69-8.64-2.08s-2.7-3.87-2.7-7.47v-27.8Z" fill="#081836"/>
      <path d="M531.7,11.07c0-3.13,1.08-5.76,3.25-7.88,2.17-2.12,4.91-3.18,8.23-3.18s6.18,1.06,8.3,3.18c2.12,2.12,3.18,4.75,3.18,7.88s-1.06,5.67-3.18,7.88-4.89,3.32-8.3,3.32-6.06-1.11-8.23-3.32c-2.17-2.21-3.25-4.84-3.25-7.88ZM553.42,70.68h-20.47V30.98c.83-.28,2.1-.55,3.8-.83,1.7-.28,3.53-.41,5.46-.41,3.96,0,6.82.67,8.57,2.01,1.75,1.34,2.63,3.9,2.63,7.68v31.26ZM532.95,60.03h20.47v36.37c-.83.28-2.07.53-3.73.76-1.66.23-3.46.35-5.39.35-3.96,0-6.85-.69-8.64-2.08-1.8-1.38-2.7-3.87-2.7-7.47v-27.94Z" fill="#081836"/>
      <path d="M623.81,77.18c0,6.73-2.54,12.01-7.61,15.84-5.07,3.83-12.45,5.74-22.13,5.74-7.56,0-13.78-1.11-18.67-3.32-4.89-2.21-7.33-5.48-7.33-9.82,0-1.94.41-3.62,1.24-5.05.83-1.43,1.89-2.56,3.18-3.39,2.58,1.48,5.6,2.83,9.06,4.08,3.46,1.24,7.4,1.87,11.83,1.87,6.73,0,10.1-1.94,10.1-5.81,0-1.66-.6-2.97-1.8-3.94-1.2-.97-3.18-1.68-5.95-2.14l-5.81-1.38c-7.38-1.57-12.89-3.99-16.53-7.26-3.64-3.27-5.46-7.77-5.46-13.49,0-6.45,2.6-11.59,7.81-15.42,5.21-3.82,12.24-5.74,21.09-5.74,4.43,0,8.46.44,12.1,1.31,3.64.88,6.52,2.21,8.64,4.01,2.12,1.8,3.18,4.04,3.18,6.71,0,1.85-.37,3.46-1.11,4.84-.74,1.38-1.71,2.54-2.91,3.46-1.02-.64-2.56-1.34-4.63-2.07-2.07-.74-4.34-1.34-6.78-1.8-2.44-.46-4.73-.69-6.85-.69-3.32,0-5.9.44-7.75,1.31-1.85.88-2.77,2.24-2.77,4.08,0,1.2.53,2.24,1.59,3.11,1.06.88,2.93,1.59,5.6,2.14l5.53,1.38c8.21,1.85,14.11,4.49,17.7,7.95,3.6,3.46,5.39,7.95,5.39,13.49Z" fill="#081836"/>
      <path d="M646.77,73.03l-.83-13.83,34.3-5.39c-.19-2.58-1.29-4.98-3.32-7.19-2.03-2.21-5.03-3.32-8.99-3.32s-7.61,1.41-10.37,4.22c-2.77,2.82-4.24,6.8-4.43,11.96l.69,9.54c.83,5.07,3,8.69,6.5,10.86,3.5,2.17,7.65,3.25,12.45,3.25,3.87,0,7.51-.55,10.93-1.66,3.41-1.11,6.18-2.26,8.3-3.46,1.38.83,2.51,1.98,3.39,3.46.88,1.48,1.31,3.04,1.31,4.7,0,2.77-1.08,5.07-3.25,6.92-2.17,1.85-5.17,3.23-8.99,4.15-3.83.92-8.18,1.38-13.07,1.38-7.1,0-13.49-1.34-19.15-4.01-5.67-2.67-10.12-6.68-13.35-12.03-3.23-5.35-4.84-12.03-4.84-20.05,0-5.9.95-11.02,2.84-15.35,1.89-4.33,4.43-7.91,7.61-10.72,3.18-2.81,6.78-4.91,10.79-6.29,4.01-1.38,8.18-2.07,12.52-2.07,6.36,0,11.92,1.27,16.67,3.8,4.75,2.54,8.46,5.97,11.13,10.3,2.67,4.33,4.01,9.36,4.01,15.07,0,2.86-.78,5.03-2.35,6.5-1.57,1.48-3.73,2.4-6.5,2.77l-43.98,6.5Z" fill="#081836"/>
      <path d="M755.2,80.08v-41.63h20.47v44.26c0,2.21-.46,4.08-1.38,5.6-.92,1.52-2.4,2.88-4.43,4.08-2.49,1.66-5.74,3.11-9.75,4.36-4.01,1.24-8.64,1.87-13.9,1.87-7.65,0-14.27-1.29-19.85-3.87-5.58-2.58-9.87-6.48-12.86-11.69-3-5.21-4.5-11.69-4.5-19.43s1.54-14.77,4.63-19.98c3.09-5.21,7.26-9.1,12.52-11.69,5.25-2.58,11.06-3.87,17.43-3.87,3.32,0,6.27.37,8.85,1.11,2.58.74,4.7,1.61,6.36,2.63v16.87c-1.29-1.11-3-2.12-5.12-3.04-2.12-.92-4.56-1.38-7.33-1.38-3.23,0-6.08.69-8.57,2.08-2.49,1.38-4.43,3.5-5.81,6.36-1.38,2.86-2.08,6.5-2.08,10.93,0,6.46,1.45,11.2,4.36,14.25,2.91,3.04,6.85,4.56,11.83,4.56,2.03,0,3.82-.25,5.39-.76,1.57-.5,2.81-1.04,3.73-1.59ZM775.67,42.46l-20.47.14V6.5c.83-.28,2.07-.55,3.73-.83,1.66-.28,3.46-.41,5.4-.41,4.06,0,6.96.69,8.71,2.07,1.75,1.38,2.63,3.92,2.63,7.61v27.52Z" fill="#081836"/>
      <path d="M28.91,81.74c4.98,0,8.55-.9,10.72-2.7,2.17-1.8,3.25-3.94,3.25-6.43,0-2.3-.85-4.17-2.56-5.6-1.71-1.43-4.22-2.65-7.54-3.66l-7.33-2.35c-4.98-1.66-9.38-3.5-13.21-5.53-3.83-2.03-6.78-4.65-8.85-7.88-2.07-3.23-3.11-7.33-3.11-12.31,0-7.65,2.91-13.74,8.71-18.26,5.81-4.52,13.88-6.78,24.2-6.78,5.25,0,9.93.51,14.04,1.52,4.1,1.02,7.33,2.51,9.68,4.49,2.35,1.98,3.53,4.4,3.53,7.26,0,2.12-.48,3.94-1.45,5.46-.97,1.52-2.19,2.83-3.67,3.94-2.12-1.47-4.93-2.74-8.44-3.8-3.51-1.06-7.38-1.59-11.62-1.59s-7.75.72-9.96,2.14c-2.21,1.43-3.32,3.3-3.32,5.6,0,1.85.74,3.34,2.21,4.49,1.47,1.15,3.69,2.19,6.64,3.11l7.61,2.35c8.39,2.58,14.84,6.02,19.36,10.3,4.52,4.29,6.78,10.03,6.78,17.22,0,7.75-3,14.04-8.99,18.88-6,4.84-14.66,7.26-26,7.26-5.63,0-10.65-.6-15.08-1.8-4.43-1.2-7.95-2.95-10.58-5.26-2.63-2.3-3.94-4.98-3.94-8.02,0-2.4.71-4.45,2.14-6.15,1.43-1.7,3.02-2.97,4.77-3.8,2.49,2.03,5.6,3.85,9.34,5.46,3.73,1.61,7.95,2.42,12.65,2.42Z" fill="#081836"/>
      <g>
        <path d="M165.2,35h49.93c7.16,0,12.98,5.82,12.98,12.98v31.04c0,7.16-5.82,12.98-12.98,12.98h-36.95c-7.16,0-12.98-5.82-12.98-12.98v-44.02h0Z" transform="translate(-9.31 46.67) rotate(-13.22)" fill="#081836"/>
        <rect x="175.14" y="71.71" width="12.46" height="17.61" rx="6.13" ry="6.13" transform="translate(-13.61 43.63) rotate(-13.22)" fill="#fff"/>
        <rect x="191.22" y="54.09" width="12.46" height="30.7" rx="5.22" ry="5.22" transform="translate(-10.65 47.01) rotate(-13.22)" fill="#fff"/>
        <rect x="208.01" y="37.68" width="12.46" height="43.63" rx="5.32" ry="5.32" transform="translate(-7.93 50.59) rotate(-13.22)" fill="#fff"/>
        <circle cx="190.8" cy="104.25" r="6.45" fill="#081836"/>
        <circle cx="219.39" cy="97.56" r="6.45" fill="#081836"/>
        <ellipse cx="195.53" cy="118.58" rx="21.64" ry="3.58" fill="#010101" opacity=".1"/>
        <path d="M168.54,57.59l-1.79.36c-1.95.39-3.86-.81-4.27-2.68l-3.7-16.82c-.41-1.87.83-3.71,2.78-4.1l1.79-.36c1.95-.39,3.86.81,4.27,2.68l3.7,16.82c.41,1.87-.83,3.71-2.78,4.1Z" fill="#081836"/>
        <path d="M167.37,36.27l.38,1.72c.41,1.87-.57,3.65-2.18,3.97l-9.93,1.99c-1.61.32-3.25-.93-3.66-2.81l-.38-1.72c-.41-1.87.57-3.65,2.18-3.97l9.93-1.99c1.61-.32,3.25.93,3.66,2.81Z" fill="#081836"/>
        <path d="M183.42,85.87l-1.44.3c-1.57.33-3.12-.62-3.46-2.13l-.5-2.18c-.34-1.51.65-3,2.22-3.33l1.44-.3c1.57-.33,3.12.62,3.46,2.13l.5,2.18c.34,1.51-.65,3-2.22,3.33Z" fill="#26b688" opacity=".5"/>
        <path d="M200.92,81.62l-1.44.3c-1.57.33-3.12-.62-3.46-2.13l-2.35-10.31c-.34-1.51.65-3,2.22-3.33l1.44-.3c1.57-.33,3.12.62,3.46,2.13l2.35,10.31c.34,1.51-.65,3-2.22,3.33Z" fill="#26b688" opacity=".75"/>
        <path d="M219.28,77.81l-1.44.3c-1.57.33-3.12-.62-3.46-2.13l-5.16-22.66c-.34-1.51.65-3,2.22-3.33l1.44-.3c1.57-.33,3.12.62,3.46,2.13l5.16,22.66c.34,1.51-.65,3-2.22,3.33Z" fill="#26b688"/>
      </g>
    </g>
  </g>
</svg>